<svg width="129" height="71" viewBox="0 0 129 71" fill="none" xmlns="http://www.w3.org/2000/svg">
<g clip-path="url(#clip0_14_3104)">
<path d="M66.3796 70.6366C64.3402 70.9355 62.2763 71.0348 60.2174 70.9331C55.253 70.6835 50.3707 69.2467 46.1983 66.5455C44.3484 65.3477 42.5837 63.876 41.6261 61.8993C40.3264 59.2147 40.7809 55.8163 42.6369 53.4781C43.3139 52.6347 44.1466 51.9278 45.0902 51.3955C45.23 51.3168 45.3729 51.2412 45.5173 51.1686C47.0897 50.3818 48.8558 50.0601 50.6064 50.2415C53.5825 50.5651 56.3292 52.374 57.9161 54.9013C59.3297 57.1548 59.8222 59.8137 60.1126 62.4786C60.1673 62.9807 60.2144 63.4843 60.26 63.9849C60.007 65.4353 59.6094 66.857 59.0728 68.2288C59.0455 68.2957 59.0232 68.3644 59.006 68.4345C59.31 69.0909 59.5993 69.7534 59.8739 70.4219C60.1319 70.5612 60.4209 70.634 60.7145 70.6336H66.3674L66.3796 70.6366Z" fill="#F2F2F2"/>
<path d="M59.7568 70.7652C59.7194 70.7818 59.6789 70.7909 59.6379 70.7918C59.5969 70.7927 59.5561 70.7855 59.5179 70.7706C59.4797 70.7557 59.4449 70.7333 59.4154 70.7049C59.386 70.6764 59.3626 70.6424 59.3465 70.6049C59.3221 70.5474 59.2993 70.4899 59.275 70.4324C59.0561 69.9031 58.8266 69.3788 58.5865 68.8595C55.5118 62.1586 50.9256 56.2533 45.1844 51.6027C45.1515 51.5797 45.1255 51.5483 45.1089 51.5119C45.0923 51.4754 45.0859 51.4352 45.0903 51.3954C45.0986 51.3499 45.1172 51.3068 45.1446 51.2693C45.1721 51.2319 45.2076 51.2011 45.2487 51.1793C45.2898 51.1575 45.3353 51.1452 45.3818 51.1433C45.4284 51.1415 45.4747 51.1501 45.5174 51.1686C45.5403 51.1789 45.5617 51.1921 45.5812 51.2079C48.0376 53.1986 50.2909 55.425 52.3088 57.8551C54.327 60.2828 56.1041 62.8994 57.6152 65.6683C58.0271 66.4245 58.4182 67.1913 58.7886 67.9687C58.8616 68.123 58.9346 68.2787 59.006 68.4345C59.31 69.0909 59.5993 69.7533 59.8739 70.4218C59.8785 70.4324 59.883 70.4445 59.8876 70.4551C59.9016 70.4837 59.9093 70.515 59.9102 70.5468C59.9111 70.5786 59.9051 70.6102 59.8927 70.6396C59.8804 70.6689 59.8618 70.6953 59.8384 70.717C59.815 70.7386 59.7872 70.7551 59.7568 70.7652Z" fill="white"/>
<path d="M39.5969 50.8177C42.8709 50.8177 45.525 48.1769 45.525 44.9192C45.525 41.6616 42.8709 39.0207 39.5969 39.0207C36.3229 39.0207 33.6688 41.6616 33.6688 44.9192C33.6688 48.1769 36.3229 50.8177 39.5969 50.8177Z" fill="#2F80ED"/>
<path d="M39.0093 47.1694C38.8759 47.1696 38.7461 47.1267 38.6394 47.0471L38.6328 47.0422L37.2396 45.9808C37.1751 45.9317 37.1209 45.8703 37.0801 45.8003C37.0394 45.7303 37.0129 45.653 37.0023 45.5728C36.9916 45.4926 36.9969 45.4111 37.0178 45.3329C37.0388 45.2548 37.0751 45.1815 37.1245 45.1173C37.174 45.053 37.2357 44.9991 37.306 44.9587C37.3764 44.9182 37.4541 44.8919 37.5348 44.8813C37.6154 44.8707 37.6973 44.876 37.7758 44.8969C37.8544 44.9178 37.928 44.9539 37.9925 45.0031L38.8949 45.6916L41.0273 42.9245C41.0768 42.8603 41.1385 42.8064 41.2088 42.766C41.2792 42.7255 41.3569 42.6992 41.4375 42.6886C41.5181 42.6781 41.6 42.6834 41.6785 42.7043C41.757 42.7252 41.8306 42.7613 41.8951 42.8105L41.8818 42.8284L41.8954 42.8108C42.0256 42.9102 42.1107 43.057 42.1322 43.2189C42.1536 43.3808 42.1097 43.5445 42.01 43.6742L39.5017 46.929C39.4437 47.004 39.3691 47.0647 39.2837 47.1064C39.1983 47.1481 39.1044 47.1696 39.0093 47.1694Z" fill="white"/>
<path d="M128.819 71H0.181012C0.133102 70.9999 0.0872033 70.9808 0.0533751 70.9471C0.0195468 70.9133 0.000549316 70.8676 0.000549316 70.8199C0.000549316 70.7722 0.0195468 70.7265 0.0533751 70.6928C0.0872033 70.659 0.133102 70.64 0.181012 70.6398H128.819C128.867 70.64 128.913 70.659 128.947 70.6928C128.981 70.7265 129 70.7722 129 70.8199C129 70.8676 128.981 70.9133 128.947 70.9471C128.913 70.9808 128.867 70.9999 128.819 71Z" fill="#3F3D56"/>
<path d="M25.1632 20.5607C27.5927 20.5607 29.5621 18.6011 29.5621 16.1837C29.5621 13.7664 27.5927 11.8068 25.1632 11.8068C22.7337 11.8068 20.7643 13.7664 20.7643 16.1837C20.7643 18.6011 22.7337 20.5607 25.1632 20.5607Z" fill="#2F2E41"/>
<path d="M21.7296 13.8238C22.4405 13.1165 22.5845 12.1131 22.0514 11.5826C21.5182 11.0521 20.5098 11.1955 19.7989 11.9028C19.0881 12.6101 18.944 13.6135 19.4772 14.144C20.0103 14.6744 21.0188 14.5311 21.7296 13.8238Z" fill="#2F2E41"/>
<path d="M29.7481 12.4338C30.0442 11.7439 29.5349 10.8661 28.6104 10.4732C27.6859 10.0802 26.6964 10.321 26.4002 11.0109C26.1041 11.7008 26.6134 12.5786 27.5379 12.9715C28.4623 13.3645 29.4519 13.1237 29.7481 12.4338Z" fill="#2F2E41"/>
<path d="M37.4123 41.4538C37.5235 41.2436 37.587 41.0117 37.5983 40.7744C37.6096 40.5372 37.5685 40.3003 37.4779 40.0806C37.3873 39.8608 37.2494 39.6635 37.0738 39.5025C36.8983 39.3416 36.6894 39.2209 36.4619 39.1489L30.1058 25.7701L27.1983 27.7987L34.3604 40.3118C34.2642 40.7001 34.3146 41.11 34.5019 41.4638C34.6891 41.8176 35.0004 42.0908 35.3766 42.2316C35.7528 42.3724 36.1678 42.371 36.543 42.2276C36.9182 42.0842 37.2275 41.8089 37.4123 41.4538V41.4538Z" fill="#FFB8B8"/>
<path d="M31.5634 28.0021L28.1877 29.5041C28.0916 29.5468 27.9874 29.5685 27.8822 29.5675C27.777 29.5666 27.6733 29.5431 27.578 29.4987C27.4827 29.4542 27.3982 29.3899 27.3302 29.31C27.2622 29.2301 27.2123 29.1366 27.1838 29.0358L26.1884 25.5038C25.9714 25.0136 25.9587 24.4578 26.153 23.9583C26.3472 23.4587 26.7326 23.0562 27.2247 22.839C27.7168 22.6218 28.2753 22.6076 28.7779 22.7995C29.2805 22.9914 29.686 23.3738 29.9057 23.8628L31.8819 26.9455C31.9385 27.0337 31.9752 27.1331 31.9897 27.2368C32.0042 27.3405 31.9961 27.4461 31.9658 27.5464C31.9356 27.6466 31.884 27.7392 31.8146 27.8179C31.7451 27.8965 31.6595 27.9594 31.5634 28.0021Z" fill="#CCCCCC"/>
<path d="M15.973 42.7802C16.2055 42.7265 16.4234 42.6227 16.6113 42.4761C16.7991 42.3295 16.9524 42.1437 17.0603 41.9319C17.1681 41.72 17.228 41.4871 17.2357 41.2497C17.2433 41.0123 17.1986 40.7761 17.1046 40.5578L23.1242 27.0257L19.6807 26.1627L14.8464 39.7357C14.4882 39.9171 14.2094 40.223 14.0627 40.5953C13.9161 40.9676 13.9118 41.3806 14.0506 41.7558C14.1895 42.1311 14.4619 42.4427 14.8162 42.6315C15.1705 42.8203 15.5821 42.8732 15.973 42.7802H15.973Z" fill="#FFB8B8"/>
<path d="M14.3321 67.3082L16.0832 67.9425L19.3757 61.5241L16.7912 60.5879L14.3321 67.3082Z" fill="#FFB8B8"/>
<path d="M18.8681 70.7839L13.3648 68.7901L14.139 66.6744L17.516 67.8979C18.0799 68.1022 18.5392 68.521 18.7928 69.0622C19.0463 69.6035 19.0734 70.2227 18.8681 70.7839Z" fill="#2F2E41"/>
<path d="M18.474 63.6145C18.3665 63.6146 18.2604 63.5909 18.1633 63.5451L16.1509 62.5967C15.9859 62.5196 15.8559 62.3839 15.7865 62.2163C15.717 62.0486 15.7132 61.8612 15.7757 61.6908L21.455 46.042C21.5021 45.9124 21.5851 45.7987 21.6944 45.7141C21.8038 45.6296 21.935 45.5777 22.0728 45.5643C22.2107 45.551 22.3495 45.5768 22.4731 45.6389C22.5968 45.7009 22.7003 45.7965 22.7715 45.9147L25.7754 50.8962C25.8422 51.0072 25.8782 51.1339 25.8796 51.2633C25.881 51.3926 25.8477 51.5201 25.7833 51.6325L19.1124 63.2482C19.0477 63.3598 18.9547 63.4524 18.8426 63.5167C18.7305 63.581 18.6034 63.6147 18.474 63.6145Z" fill="#2F2E41"/>
<path d="M25.3028 20.9433C27.3646 20.9433 29.0361 19.2802 29.0361 17.2286C29.0361 15.1771 27.3646 13.5139 25.3028 13.5139C23.2409 13.5139 21.5695 15.1771 21.5695 17.2286C21.5695 19.2802 23.2409 20.9433 25.3028 20.9433Z" fill="#FFB8B8"/>
<path d="M30.5843 34.1179L23.9741 32.3091L20.4583 25.3128C20.2894 24.9767 20.2097 24.6032 20.2267 24.2278C20.2436 23.8524 20.3568 23.4875 20.5553 23.1679C20.7539 22.8482 21.0313 22.5844 21.3611 22.4014C21.691 22.2184 22.0624 22.1224 22.4401 22.1224H27.6992C28.2451 22.122 28.7719 22.3225 29.1782 22.6852C30.589 23.9427 33.553 27.568 30.6129 34.0547L30.5843 34.1179Z" fill="#CCCCCC"/>
<path d="M22.3093 29.4459L18.9602 27.886C18.8649 27.8416 18.7804 27.7773 18.7123 27.6975C18.6442 27.6177 18.5943 27.5242 18.5658 27.4234C18.5373 27.3226 18.531 27.2169 18.5473 27.1135C18.5635 27.01 18.602 26.9113 18.6601 26.824L20.6955 23.7655C20.9265 23.2817 21.3409 22.9088 21.8478 22.7285C22.3546 22.5483 22.9127 22.5754 23.3995 22.8038C23.8864 23.0323 24.2623 23.4436 24.4449 23.9474C24.6275 24.4513 24.6019 25.0066 24.3736 25.4917L23.3211 28.9949C23.291 29.0952 23.2394 29.1878 23.1701 29.2665C23.1007 29.3452 23.015 29.4081 22.919 29.4509C22.823 29.4937 22.7188 29.5154 22.6136 29.5145C22.5084 29.5137 22.4046 29.4902 22.3093 29.4459Z" fill="#CCCCCC"/>
<path d="M26.3614 69.062H28.2247L29.1114 61.91L26.3609 61.9102L26.3614 69.062Z" fill="#FFB8B8"/>
<path d="M31.8187 70.7836L25.962 70.7839L25.9619 68.5323L29.5558 68.5322C30.1559 68.5321 30.7315 68.7693 31.1559 69.1916C31.5803 69.6138 31.8187 70.1865 31.8187 70.7836Z" fill="#2F2E41"/>
<path d="M27.0649 66.3367C26.8974 66.3369 26.7349 66.2797 26.6048 66.1746C26.4747 66.0695 26.385 65.923 26.3509 65.7598C25.8152 63.2485 23.0332 50.3857 20.8619 43.7601C18.6527 37.0191 22.4151 33.9487 23.1918 33.4017C23.2745 33.3436 23.3402 33.2646 23.3822 33.1729L23.9464 31.9379C24.005 31.8104 24.0991 31.7023 24.2176 31.6265C24.3361 31.5507 24.4739 31.5104 24.6148 31.5104H24.6194C28.8494 31.5355 30.2714 32.8623 30.6864 33.4316C30.7477 33.5164 30.7896 33.6134 30.8094 33.7159C30.8292 33.8185 30.8263 33.9241 30.801 34.0254L28.1246 45.0124C28.108 45.0805 28.1042 45.1511 28.1135 45.2206L30.7763 65.1696C30.7891 65.2655 30.7826 65.3629 30.7571 65.4563C30.7317 65.5496 30.6878 65.637 30.6281 65.7133C30.5683 65.7896 30.4939 65.8533 30.4091 65.9007C30.3244 65.9481 30.231 65.9782 30.1344 65.9893L27.1509 66.3318C27.1223 66.335 27.0936 66.3367 27.0649 66.3367Z" fill="#2F2E41"/>
<path d="M21.3799 14.8921C22.2331 15.4772 23.2456 15.7885 24.2818 15.7844C23.9122 16.0394 23.4914 16.2116 23.0485 16.2893C24.4261 16.5833 25.8498 16.5912 27.2306 16.3126C27.5376 16.2637 27.8337 16.1625 28.1061 16.0134C28.2419 15.938 28.3601 15.835 28.4532 15.7111C28.5464 15.5872 28.6122 15.4452 28.6465 15.2943C28.7383 14.7728 28.3298 14.2989 27.9054 13.9796C27.2555 13.4981 26.5062 13.1663 25.7116 13.0084C24.9171 12.8504 24.0972 12.8701 23.3112 13.0661C22.798 13.1981 22.2839 13.4211 21.9506 13.8312C21.6172 14.2413 21.5185 14.8735 21.8361 15.2958L21.3799 14.8921Z" fill="#2F2E41"/>
<path d="M89.9094 31.0049C91.0007 31.0049 91.8854 30.1246 91.8854 29.0387C91.8854 27.9528 91.0007 27.0725 89.9094 27.0725C88.818 27.0725 87.9333 27.9528 87.9333 29.0387C87.9333 30.1246 88.818 31.0049 89.9094 31.0049Z" fill="#2F80ED"/>
<path d="M89.7136 29.7887C89.6692 29.7888 89.6259 29.7745 89.5903 29.748L89.5881 29.7463L89.1237 29.3926C89.1021 29.3762 89.084 29.3557 89.0704 29.3324C89.0568 29.3091 89.0479 29.2833 89.0443 29.2565C89.0407 29.2297 89.0425 29.2025 89.0494 29.1764C89.0564 29.1503 89.0685 29.1259 89.085 29.1044C89.1015 29.083 89.1221 29.065 89.1456 29.0515C89.1691 29.038 89.1951 29.0293 89.222 29.0258C89.2489 29.0222 89.2762 29.0241 89.3024 29.0311C89.3286 29.0381 89.3532 29.0502 89.3747 29.0667L89.6755 29.2961L90.3863 28.3738C90.4028 28.3524 90.4234 28.3344 90.4468 28.3209C90.4703 28.3074 90.4962 28.2987 90.523 28.2952C90.5499 28.2916 90.5772 28.2934 90.6034 28.3004C90.6295 28.3073 90.6541 28.3194 90.6756 28.3358L90.6712 28.3417L90.6757 28.3359C90.7191 28.369 90.7474 28.418 90.7546 28.4719C90.7618 28.5259 90.7471 28.5805 90.7139 28.6237L89.8778 29.7086C89.8584 29.7336 89.8336 29.7539 89.8051 29.7677C89.7766 29.7816 89.7453 29.7888 89.7136 29.7887Z" fill="white"/>
<path d="M89.9094 36.7521C91.0007 36.7521 91.8854 35.8718 91.8854 34.7859C91.8854 33.7 91.0007 32.8198 89.9094 32.8198C88.818 32.8198 87.9333 33.7 87.9333 34.7859C87.9333 35.8718 88.818 36.7521 89.9094 36.7521Z" fill="#2F80ED"/>
<path d="M89.7136 35.536C89.6692 35.5361 89.6259 35.5218 89.5903 35.4952L89.5881 35.4936L89.1237 35.1398C89.1021 35.1234 89.084 35.103 89.0704 35.0796C89.0568 35.0563 89.0479 35.0305 89.0443 35.0037C89.0407 34.977 89.0425 34.9498 89.0494 34.9237C89.0564 34.8976 89.0685 34.8731 89.085 34.8517C89.1015 34.8303 89.1221 34.8123 89.1456 34.7988C89.1691 34.7853 89.1951 34.7765 89.222 34.773C89.2489 34.7695 89.2762 34.7713 89.3024 34.7783C89.3286 34.7853 89.3532 34.7974 89.3747 34.8139L89.6755 35.0434L90.3863 34.121C90.4028 34.0996 90.4234 34.0817 90.4468 34.0682C90.4703 34.0547 90.4962 34.0459 90.523 34.0424C90.5499 34.0389 90.5772 34.0406 90.6034 34.0476C90.6295 34.0546 90.6541 34.0666 90.6756 34.083L90.6712 34.089L90.6757 34.0831C90.7191 34.1163 90.7474 34.1652 90.7546 34.2192C90.7618 34.2731 90.7471 34.3277 90.7139 34.3709L89.8778 35.4559C89.8584 35.4809 89.8336 35.5011 89.8051 35.515C89.7766 35.5289 89.7453 35.5361 89.7136 35.536Z" fill="white"/>
<path d="M90.9734 43.4068C92.0647 43.4068 92.9494 42.5265 92.9494 41.4406C92.9494 40.3548 92.0647 39.4745 90.9734 39.4745C89.8821 39.4745 88.9974 40.3548 88.9974 41.4406C88.9974 42.5265 89.8821 43.4068 90.9734 43.4068Z" fill="#2F80ED"/>
<path d="M90.7776 42.1907C90.7331 42.1908 90.6899 42.1765 90.6543 42.1499L90.6521 42.1483L90.1877 41.7945C90.1661 41.7781 90.148 41.7577 90.1344 41.7343C90.1207 41.711 90.1119 41.6852 90.1083 41.6584C90.1047 41.6317 90.1064 41.6045 90.1134 41.5784C90.1204 41.5523 90.1325 41.5278 90.149 41.5064C90.1655 41.485 90.1861 41.467 90.2096 41.4535C90.2331 41.44 90.259 41.4312 90.2859 41.4277C90.3128 41.4242 90.3402 41.426 90.3664 41.433C90.3926 41.44 90.4172 41.4521 90.4387 41.4686L90.7395 41.6981L91.4503 40.7757C91.4668 40.7543 91.4873 40.7364 91.5108 40.7229C91.5343 40.7094 91.5602 40.7006 91.587 40.6971C91.6139 40.6936 91.6412 40.6954 91.6673 40.7023C91.6935 40.7093 91.7181 40.7213 91.7396 40.7377L91.7351 40.7437L91.7397 40.7378C91.783 40.771 91.8114 40.8199 91.8186 40.8739C91.8257 40.9278 91.8111 40.9824 91.7779 41.0256L90.9417 42.1106C90.9224 42.1356 90.8975 42.1558 90.8691 42.1697C90.8406 42.1836 90.8093 42.1908 90.7776 42.1907Z" fill="white"/>
<path d="M110.028 57.8565C110.007 57.8565 109.994 57.856 109.99 57.8557L107.537 57.856V57.4961H109.999C110.056 57.4981 111.219 57.5308 112.29 56.237C113.887 54.3088 115.199 49.5354 112.377 37.7454C108.584 21.892 111.748 7.88637 113.284 2.60067C113.36 2.33917 113.374 2.06373 113.324 1.79612C113.274 1.52851 113.163 1.27607 112.998 1.05873C112.833 0.841396 112.62 0.665122 112.375 0.54384C112.131 0.422559 111.861 0.359594 111.587 0.359917H74.9497C74.6712 0.360288 74.3966 0.426003 74.1484 0.551728C73.9001 0.677454 73.6852 0.859648 73.521 1.08352C72.8701 1.97434 71.977 3.68569 71.418 6.7801L71.0621 6.71648C71.6331 3.55485 72.5553 1.79315 73.2284 0.871929C73.4262 0.602173 73.6852 0.382634 73.9843 0.231135C74.2833 0.0796363 74.6141 0.000448074 74.9497 9.79544e-07H111.587C111.917 -0.000314615 112.242 0.0756339 112.537 0.221846C112.832 0.368059 113.089 0.580529 113.287 0.842471C113.485 1.10441 113.62 1.40865 113.68 1.73114C113.739 2.05364 113.723 2.38555 113.632 2.70067C112.103 7.95895 108.956 21.8919 112.729 37.6621C115.59 49.6179 114.215 54.4947 112.557 56.4805C111.464 57.7902 110.26 57.8565 110.028 57.8565Z" fill="#E6E6E6"/>
<path d="M103.426 64.4249C103.406 64.4249 103.393 64.4244 103.389 64.4241L100.935 64.4244V64.0645H103.397C103.455 64.0662 104.617 64.0992 105.689 62.8054C107.286 60.8772 108.597 56.1038 105.776 44.3138C101.983 28.4604 105.147 14.4548 106.683 9.16908C106.759 8.90758 106.772 8.63214 106.723 8.36453C106.673 8.09692 106.561 7.84448 106.397 7.62714C106.232 7.4098 106.019 7.23353 105.774 7.11225C105.529 6.99097 105.259 6.928 104.986 6.92832H68.3484C68.0698 6.9287 67.7953 6.99441 67.547 7.12013C67.2988 7.24586 67.0838 7.42805 66.9196 7.65193C66.2688 8.54275 65.3756 10.2541 64.8167 13.3485L64.4607 13.2849C65.0317 10.1233 65.954 8.36156 66.6271 7.44033C66.8249 7.17058 67.0838 6.95104 67.3829 6.79954C67.682 6.64804 68.0127 6.56885 68.3484 6.56841H104.986C105.316 6.56809 105.641 6.64404 105.936 6.79025C106.231 6.93647 106.488 7.14894 106.686 7.41088C106.884 7.67282 107.018 7.97706 107.078 8.29955C107.138 8.62205 107.122 8.95396 107.03 9.26908C105.502 14.5274 102.354 28.4603 106.128 44.2305C108.989 56.1864 107.614 61.0631 105.956 63.0489C104.863 64.3586 103.658 64.4249 103.426 64.4249Z" fill="#CCCCCC"/>
<path d="M99.5266 50.7995C95.7524 35.0294 98.9003 21.0954 100.429 15.8382C100.521 15.5231 100.537 15.1912 100.477 14.8688C100.417 14.5463 100.283 14.2422 100.084 13.9802C99.8861 13.7183 99.6294 13.5058 99.3345 13.3595C99.0396 13.2131 98.7145 13.137 98.385 13.137H61.7466C61.4112 13.1373 61.0805 13.2164 60.7815 13.3677C60.4825 13.5191 60.2237 13.7385 60.0259 14.0081C58.5469 16.0318 55.478 22.7424 58.9057 41.3105C60.7388 51.2442 60.7115 58.0169 60.1126 62.4785C59.7766 64.9907 59.2583 66.7693 58.7886 67.9687L58.7385 68.0957C58.6396 68.3384 58.588 68.5976 58.5865 68.8595C58.583 69.1552 58.6426 69.4483 58.7613 69.7194C58.88 69.9905 59.0551 70.2335 59.275 70.4324C59.4185 70.5661 59.5808 70.6782 59.7569 70.7651C59.903 70.8394 60.0577 70.8957 60.2175 70.933C60.3802 70.9725 60.5471 70.9923 60.7145 70.992H96.7875C96.7921 70.992 96.8042 70.9935 96.8255 70.9935C97.0565 70.9935 98.262 70.927 99.3548 69.6172C101.012 67.6314 102.387 62.7553 99.5266 50.7995ZM99.0873 69.3737C98.0157 70.6684 96.8529 70.6351 96.7966 70.6336H60.7145C60.4256 70.6335 60.1412 70.563 59.886 70.4283C59.6308 70.2935 59.4127 70.0987 59.2507 69.8607C59.1082 69.655 59.0125 69.4208 58.9702 69.1745C58.9279 68.9282 58.9402 68.6756 59.006 68.4345C59.0232 68.3644 59.0456 68.2957 59.0729 68.2288C59.6094 66.857 60.0071 65.4353 60.26 63.9849C61.1173 59.3342 61.2769 52.1577 59.2614 41.2455C55.8596 22.815 58.8677 16.2057 60.3177 14.2199C60.4823 13.9963 60.6973 13.8144 60.9455 13.6888C61.1937 13.5632 61.4682 13.4975 61.7466 13.4969H98.385C98.6584 13.4967 98.928 13.5598 99.1727 13.6811C99.4174 13.8023 99.6304 13.9785 99.7949 14.1957C99.9594 14.413 100.071 14.6653 100.121 14.9327C100.17 15.2002 100.157 15.4754 100.081 15.7368C98.5447 21.0228 95.3815 35.0294 99.1754 50.8827C101.997 62.6721 100.685 67.4454 99.0873 69.3737Z" fill="#3F3D56"/>
<path d="M82.1207 30.3092H63.2442C62.8605 30.3092 62.4925 30.1575 62.2211 29.8875C61.9498 29.6175 61.7974 29.2513 61.7974 28.8695C61.7974 28.4877 61.9498 28.1215 62.2211 27.8515C62.4925 27.5815 62.8605 27.4299 63.2442 27.4299H82.1207C82.5044 27.4299 82.8725 27.5815 83.1438 27.8515C83.4151 28.1215 83.5676 28.4877 83.5676 28.8695C83.5676 29.2513 83.4151 29.6175 83.1438 29.8875C82.8725 30.1575 82.5044 30.3092 82.1207 30.3092Z" fill="#CCCCCC"/>
<path d="M82.1207 36.5102H63.2442C62.8605 36.5102 62.4925 36.3585 62.2211 36.0885C61.9498 35.8185 61.7974 35.4523 61.7974 35.0705C61.7974 34.6887 61.9498 34.3225 62.2211 34.0525C62.4925 33.7825 62.8605 33.6309 63.2442 33.6309H82.1207C82.5044 33.6309 82.8725 33.7825 83.1438 34.0525C83.4151 34.3225 83.5676 34.6887 83.5676 35.0705C83.5676 35.4523 83.4151 35.8185 83.1438 36.0885C82.8725 36.3585 82.5044 36.5102 82.1207 36.5102Z" fill="#CCCCCC"/>
<path d="M83.6407 42.8624H64.7642C64.3805 42.8624 64.0125 42.7107 63.7412 42.4407C63.4698 42.1707 63.3174 41.8045 63.3174 41.4227C63.3174 41.0409 63.4698 40.6747 63.7412 40.4047C64.0125 40.1347 64.3805 39.9831 64.7642 39.9831H83.6407C84.0245 39.9831 84.3925 40.1347 84.6638 40.4047C84.9352 40.6747 85.0876 41.0409 85.0876 41.4227C85.0876 41.8045 84.9352 42.1707 84.6638 42.4407C84.3925 42.7107 84.0245 42.8624 83.6407 42.8624Z" fill="#CCCCCC"/>
<path d="M84.7047 49.5171H65.8283C65.4445 49.5171 65.0765 49.3654 64.8052 49.0954C64.5338 48.8254 64.3814 48.4592 64.3814 48.0774C64.3814 47.6956 64.5338 47.3294 64.8052 47.0594C65.0765 46.7894 65.4445 46.6378 65.8283 46.6378H84.7047C85.0885 46.6378 85.4565 46.7894 85.7278 47.0594C85.9992 47.3294 86.1516 47.6956 86.1516 48.0774C86.1516 48.4592 85.9992 48.8254 85.7278 49.0954C85.4565 49.3654 85.0885 49.5171 84.7047 49.5171Z" fill="#CCCCCC"/>
<path d="M84.7129 19.1308H71.1484C70.9583 19.131 70.77 19.0939 70.5943 19.0217C70.4186 18.9494 70.2589 18.8434 70.1244 18.7097C69.9899 18.576 69.8832 18.4172 69.8104 18.2425C69.7375 18.0677 69.7001 17.8804 69.7001 17.6912C69.7001 17.502 69.7375 17.3147 69.8104 17.1399C69.8832 16.9651 69.9899 16.8064 70.1244 16.6727C70.2589 16.539 70.4186 16.433 70.5943 16.3607C70.77 16.2884 70.9583 16.2513 71.1484 16.2515H84.7129C85.0966 16.2515 85.4646 16.4032 85.7359 16.6732C86.0073 16.9432 86.1597 17.3094 86.1597 17.6912C86.1597 18.073 86.0073 18.4392 85.7359 18.7092C85.4646 18.9792 85.0966 19.1308 84.7129 19.1308Z" fill="#2F80ED"/>
<path d="M92.1894 50.0436C93.2807 50.0436 94.1654 49.1633 94.1654 48.0774C94.1654 46.9915 93.2807 46.1113 92.1894 46.1113C91.0981 46.1113 90.2134 46.9915 90.2134 48.0774C90.2134 49.1633 91.0981 50.0436 92.1894 50.0436Z" fill="#CCCCCC"/>
<path d="M85.6167 56.0205H66.7403C66.3565 56.0205 65.9885 55.8688 65.7172 55.5989C65.4458 55.3289 65.2934 54.9627 65.2934 54.5809C65.2934 54.1991 65.4458 53.8329 65.7172 53.5629C65.9885 53.2929 66.3565 53.1412 66.7403 53.1412H85.6167C86.0005 53.1412 86.3685 53.2929 86.6398 53.5629C86.9112 53.8329 87.0636 54.1991 87.0636 54.5809C87.0636 54.9627 86.9112 55.3289 86.6398 55.5989C86.3685 55.8688 86.0005 56.0205 85.6167 56.0205Z" fill="#CCCCCC"/>
<path d="M93.1014 56.547C94.1928 56.547 95.0775 55.6668 95.0775 54.5809C95.0775 53.495 94.1928 52.6147 93.1014 52.6147C92.0101 52.6147 91.1254 53.495 91.1254 54.5809C91.1254 55.6668 92.0101 56.547 93.1014 56.547Z" fill="#CCCCCC"/>
</g>
<defs>
<clipPath id="clip0_14_3104">
<rect width="129" height="71" fill="white"/>
</clipPath>
</defs>
</svg>
